<svg xmlns="http://www.w3.org/2000/svg" xmlns:xlink="http://www.w3.org/1999/xlink" width="500" zoomAndPan="magnify" viewBox="0 0 375 374.999991" height="500" preserveAspectRatio="xMidYMid meet" version="1.0"><defs><g/><clipPath id="f7b86f2135"><path d="M 50.191406 37.5 L 321 37.5 L 321 305 L 50.191406 305 Z M 50.191406 37.5 " clip-rule="nonzero"/></clipPath></defs><rect x="-37.5" width="450" fill="#ffffff" y="-37.499999" height="449.999989" fill-opacity="1"/><rect x="-37.5" width="450" fill="#ffffff" y="-37.499999" height="449.999989" fill-opacity="1"/><g clip-path="url(#f7b86f2135)"><path fill="#2563eb" d="M 161.296875 37.507812 L 169.394531 37.554688 C 170.875 37.5625 172.066406 38.769531 172.058594 40.242188 L 172.019531 48.109375 C 172.015625 49.59375 170.808594 50.785156 169.324219 50.777344 L 161.226562 50.738281 C 159.746094 50.730469 158.546875 49.523438 158.554688 48.042969 L 158.597656 40.171875 C 158.605469 38.691406 159.8125 37.5 161.296875 37.507812 Z M 135.375 53.601562 L 151.847656 53.632812 C 154.742188 53.640625 157.078125 55.988281 157.078125 58.882812 L 157.046875 75.230469 C 157.042969 78.117188 154.695312 80.460938 151.800781 80.453125 L 135.332031 80.425781 C 132.4375 80.417969 130.097656 78.070312 130.097656 75.175781 L 130.128906 58.835938 C 130.136719 55.941406 132.480469 53.601562 135.375 53.601562 Z M 57.199219 54.328125 L 76.296875 54.328125 C 80.144531 54.328125 83.261719 57.445312 83.261719 61.296875 L 83.261719 80.226562 C 83.261719 84.074219 80.144531 87.191406 76.296875 87.191406 L 57.199219 87.191406 C 53.347656 87.191406 50.230469 84.074219 50.230469 80.226562 L 50.230469 61.296875 C 50.230469 57.445312 53.347656 54.328125 57.199219 54.328125 Z M 130.113281 146.304688 L 130.113281 146.335938 C 130.113281 146.347656 130.113281 146.363281 130.113281 146.371094 L 130.113281 146.507812 L 130.121094 146.515625 L 130.121094 146.578125 L 130.128906 146.585938 L 130.128906 146.59375 C 130.191406 151.390625 130.234375 156.195312 130.265625 160.992188 C 130.289062 165.628906 127.96875 167.921875 123.292969 167.859375 C 118.585938 167.800781 113.859375 167.800781 109.097656 167.839844 C 102.917969 167.890625 103.277344 172.230469 103.199219 177.402344 C 103.125 183.71875 103.15625 188.625 103.285156 192.113281 C 103.46875 196.40625 106.339844 197.433594 110.28125 197.453125 C 127.449219 197.5625 141.242188 197.554688 151.664062 197.425781 C 155.8125 197.378906 157.019531 194.582031 157.035156 190.730469 C 157.035156 176.84375 157.042969 162.941406 157.042969 149.023438 C 157.042969 144.484375 157.941406 141.191406 163.054688 141.175781 C 167.542969 141.171875 172.035156 141.171875 176.519531 141.171875 L 192.402344 141.175781 C 195.097656 141.175781 197.292969 138.992188 197.292969 136.289062 L 197.222656 94.878906 C 198.109375 88.375 194.472656 87.496094 188.949219 87.496094 C 180.050781 87.496094 171.152344 87.511719 162.257812 87.542969 C 158.410156 87.550781 157.132812 90.46875 157.070312 94.027344 C 156.996094 98.078125 156.964844 102.15625 156.980469 106.257812 C 156.988281 112.15625 154.992188 114.648438 148.914062 114.074219 C 144.484375 114.105469 140.007812 114.082031 135.492188 114.019531 C 131.441406 113.960938 130.265625 110.636719 130.273438 106.945312 C 130.289062 102.082031 130.265625 97.207031 130.210938 92.332031 C 130.167969 88.757812 126.753906 87.542969 123.484375 87.476562 C 115.898438 87.335938 110.792969 87.351562 108.175781 87.519531 C 104.324219 87.765625 103.277344 90.714844 103.253906 94.28125 C 103.171875 107.589844 103.164062 120.894531 103.230469 134.195312 C 103.253906 139.800781 105.691406 140.847656 110.933594 140.863281 C 115.253906 140.863281 119.546875 140.871094 123.8125 140.878906 C 127.777344 140.886719 129.875 142.699219 130.113281 146.304688 Z M 157.117188 250.578125 C 157.117188 250.851562 157.339844 251.082031 157.621094 251.082031 C 172.128906 251.050781 186.65625 251.050781 201.203125 251.097656 C 210.734375 251.121094 217.765625 250.644531 222.292969 249.660156 C 263.277344 240.777344 281.816406 192.671875 253.402344 160.039062 C 244.257812 149.527344 232.269531 143.316406 217.457031 141.398438 C 215.34375 141.125 214.28125 139.871094 214.273438 137.648438 C 214.21875 122.605469 214.195312 107.574219 214.195312 92.53125 C 214.195312 89.652344 215.234375 87.140625 218.460938 87.414062 C 254.171875 90.554688 281.917969 106.296875 301.695312 134.660156 C 318.761719 159.144531 324.757812 190.394531 318.386719 219.28125 C 308.394531 264.546875 268.585938 298.742188 222.371094 304.066406 C 217.910156 304.578125 210.859375 304.84375 201.210938 304.859375 C 169.90625 304.898438 138.730469 304.898438 107.675781 304.859375 C 104.699219 304.859375 103.207031 303.371094 103.207031 300.398438 L 103.199219 218.1875 C 103.199219 216.15625 104.851562 214.503906 106.890625 214.503906 L 153.441406 214.503906 C 155.453125 214.503906 157.078125 216.132812 157.078125 218.132812 Z M 76.761719 99.902344 L 86.832031 99.941406 C 89.0625 99.949219 90.863281 101.761719 90.855469 103.992188 L 90.824219 113.890625 C 90.816406 116.121094 89 117.925781 86.769531 117.917969 L 76.699219 117.886719 C 74.46875 117.878906 72.667969 116.058594 72.675781 113.828125 L 72.714844 103.929688 C 72.722656 101.699219 74.53125 99.894531 76.761719 99.902344 Z M 64.492188 133.09375 L 80.941406 133.125 C 83.84375 133.132812 86.195312 135.488281 86.1875 138.398438 L 86.164062 154.714844 C 86.15625 157.625 83.796875 159.96875 80.894531 159.96875 L 64.449219 159.9375 C 61.539062 159.929688 59.191406 157.570312 59.191406 154.667969 L 59.222656 138.34375 C 59.230469 135.441406 61.589844 133.09375 64.492188 133.09375 Z M 64.492188 133.09375 " fill-opacity="1" fill-rule="evenodd"/></g><g fill="#2563eb" fill-opacity="1"><g transform="translate(166.4685, 234.625636)"><g><path d="M 6.328125 -80.140625 L 64.671875 -80.140625 L 64.671875 -63.265625 L 31.640625 -63.265625 L 31.640625 -48.640625 L 59.46875 -48.640625 L 59.46875 -33.46875 L 31.640625 -33.46875 L 31.640625 -17.15625 L 64.53125 -17.15625 L 64.53125 0 L 6.328125 0 Z M 6.328125 -80.140625 "/></g></g></g></svg>