<svg version="1.2" xmlns="http://www.w3.org/2000/svg" viewBox="0 0 3536 2009" width="3536" height="2009">
	<title>Vector Smart Object (Double Click to Edit)9</title>
	<style>
		.s0 { fill: #333333 } 
	</style>
	<path id="Vector Smart Object (Double Click to Edit)" fill-rule="evenodd" class="s0" d="m3442.2 639.8c133.8-10.9 105.1 260.2 33.7 560-2.9 28.2-2.9 43.6 4.2 34 11.4-20.3 23.1-89.9 34.5-169 2-4.5 4.1-9.8 5.9-15.2-17.5 103.6 20.4 4 10.7 66.6-17.4 82.6-35.1 164.9-57.1 246.1-45.3 165.1-92.1 315.4-140.6 464.3l-20.9 63.2q-11.6 34-23.2 68.1l-11.9 34.2c-2.1 5.6-3.8 11.7-6.2 16.9l-17.9-0.1q-36-0.3-72.3-0.5c-44.5-0.4-89.5-0.7-135-1-40.5-0.1-81.5-0.1-123.3-0.2-14.8 0-29.4 0-44.1-0.1-162-0.5-315-3.8-473.5-10.2 10.1-1.8 20.8-3.4 31.6-4.9-127.5-5.2-255.3-9.1-383.2-7.9-313.6 3.6-627.2 7.2-961.4 1.5-175.1-3.3-347-5.6-519.6-7-93.5-0.7-187.2-1.3-281.7-2-32.2-0.1-64-0.9-96-1.9l-48.4-1.3-6-0.1c-1.5-0.8-1.3-3.6-2-5.2l-2.8-11.6-5.8-23.2c-7.6-30.9-15.2-62.1-22.6-93.8-7.2-32-14-64.6-20-93.4l17.1 75.6c6 26.2 12.5 51.8 19 77.2l9.7 37.8 4.9 18.9 2.4 9.4 1.3 4.8c-0.1 1 0.7 1.1 1.7 1h2.5q40 0.7 80 1.4c86.9 0.6 174.2 1.1 262.7 1.7 66.9 2 133.5 3.9 198.3 5-67.1-2.7-133-4.2-198.3-5-73.3-2.2-147.2-4.3-220.2-6.5-22.8-0.5-44.9-1.8-67.4-2.5l-33.4-1.4-16.7-0.6-2.1-0.1c-0.5-0.2-0.4-1.2-0.6-1.8l-1-4.1-1.9-8.1c-10.1-43.1-20.2-85.5-29.5-128.2-14.5-68.3-28.6-134.4-42-197.4-12.2-56.7-24.2-110.6-36.7-160.6 0.1-22.3 2.8-22.5 0.8-43.8-14.8-150.2-16.9-301.4-15.1-437.3-1.5-0.2-0.4-17.2 0-31.5 0.7-14.4 1.2-26.1-3.5-15 8.1-68.8 22.8-145.2 56-224 2.1-4.9 4-9.8 6.3-14.7l7.5-14.8c5.1-9.9 10.1-19.7 15.5-29.5q9.6-14.5 19.1-29c3.4-4.8 6.3-9.7 10-14.3l11.6-13.9 11.8-13.7c3.7-4.2 8.5-10 11.2-12.3q9.2-9.1 18.3-18.1c12-12.1 23.8-24 35.4-35.6 20.5-19.9 39.3-41.2 59.6-61.6 20.6-20.1 40.8-40.8 61-61.8l33.8-29.5c11.7-9.3 23.8-18.3 35.7-27.6l72.1-54.9c25.1-17.1 50.9-33.6 76.5-50.4 12.9-8.3 25.5-16.9 38.6-24.9l40.7-22.4 40.9-22.4c13.6-7.4 27.1-15.1 41.7-21.1q43-19.2 86.2-38.5c59.4-22 119.4-44.2 182.4-58.5 125.1-31.3 256.5-44.6 387.2-40.9 130.8 3.5 260.3 23.3 386.4 52.3 125.5 29.2 262.7 75.1 379 116.5-87-26.1-178.1-51.6-271.2-75.7-94.3-22.9-191.2-44.1-292.1-58.2-193.5-36.6-395.9-36.6-551.4 10.1-35.9 11.2-71.8 21-107 33 107.9-32 219.6-52 331.1-58.8 111.4-5.1 221.2 1.5 327.3 15.7 115 21 226.8 53.9 333.9 87-2.2-0.5-4.3-0.9-6.6-1.4-42.1-11.8-86.2-21.4-129.6-31.9-21.8-5.1-44.4-9.2-66.6-13.8-22.3-4.4-44.4-9.3-67.4-12.6q-31.9-6.5-63.4-12.9c-20.9-4.7-42.6-6.8-63.7-10.2-21.2-2.8-42-6.5-63.2-8.2q-31.8-2.4-62.9-4.6-15.5-1-30.9-2-15.5 0.1-30.9 0.2-30.6 0.5-60.4 1l-14.8 0.4-14.7 1.5q-14.7 1.6-29.1 3.1-28.7 3.3-56.2 7c-18.2 2.9-36.2 7.5-53.3 11.4l-54.2 11.8c-17.8 4.6-35.5 10.3-53.1 15.4 133.2-33.9 271.7-45.9 405.7-40.3l62.4 3 61.5 6.4c41.2 3.6 81 10.8 121.2 17 25.2 4.8 49.4 11.7 74.1 17.8 24.6 6.3 49.5 12.3 73.4 19.7-5.3-0.7-10.9-1.4-15.8-2.1-21.6-4.5-65.1-4.8-94.5-1.7-14.7 1.5-26.1 4.3-30 8.3-3.9 4 0.1 8.1 15.4 14.2 164 36.4 353 96.6 498.5 146.1 72.5 24.5 135.5 45.8 180.4 61 22.2 7.5 39.9 13.5 52.1 17.6 6.1 2.2 10.7 3.9 13.9 5 3.1 1.2 4.7 1.9 4.7 2 7.7 9.2-118-28.5-245.3-68.8-127.3-40.1-257-78-247.6-72.8 29.7 10.5 58.8 22.1 88.2 32.8-29-7.1-57.1-14.4-83.6-19.8-30.9-7.9-66.2-19.6-99.6-28.8-33.6-9-64.6-17.1-86-19.8-74.9-9.4-153.5-25.1-236.5-33.9-82.4-11.1-169.3-13.3-255.2-6.7-107.5 11.2-233.7 42.6-349.3 93.9 0.9 2.8-13.9 8.2-26.1 12.8-6.6 2.5-12.3 5.2-14.5 6.9 42.2-15.6 84.2-28.5 125.8-39 110-34 230.4-46.6 349.8-41.9 121 4.5 241 26.6 355.7 55.6q-38.1-7.7-76.1-13.9 30.2 6.3 60.3 13.5c25 4.9 49.7 10.2 74.1 15.6 19.5 5.6 38.6 11 57.9 16.4 40.2 11.6 80.1 24.5 120 37.2-36.9-13.2-73.6-25.7-110.2-37.7 37.8 9.7 75.4 19.7 112.7 29.8 37.1 10.7 74.2 20.7 110.7 31.7 200.5 62.6 400.6 135.8 604.5 192.8 50.8 14.9 102.2 27.2 153.4 40.1 51.6 11 102.9 23.5 154.9 31.5 51.6 10.2 103.7 15.7 155.6 22.7l78.1 6.3c13 0.9 26 2.5 39 2.8l39.1 0.9c-8.2 3.5-17.7 6.9-28.3 10.3-100.8-3.7-201.7-13-297.1-29.7q-17.9-2.7-35.7-5.4-17.6-3.3-35-6.5c-23.2-4.2-46.1-8.3-68.6-12.3-44.6-9.6-88.2-16.9-129.3-25.1 28.2 8.7 54.8 14.5 80 20.8 25.2 6.1 49.3 11.9 73.6 16.2 24.1 4.7 48.2 9.4 73.1 14.3 25.1 4.1 51.1 8.3 79 12.9-0.3 1.6 0.3 4.2-9.2 3.6 72.1 9.6 156.6 15.5 238.6 19.5-16.7 3.5-34.7 7-53.3 10.4 93.7 7.3 189.7 7.9 288.2-0.1zm-1559.4-512.3c-29.8-9.7-60.8-18.1-91.1-27.2 34 4.7 74.9 11.3 116.1 20.8 100.8 26.1 197.1 55.6 291.1 83.6 5.2 1.9 10.7 3.8 15.9 5.7-26.5-2.8-46.1-4.6-61.2-5.6-31.5-10-87-26.2-181.5-48.6-29.6-9.6-59.4-19.1-89.3-28.7zm268.3 88.9c-31.4-6-62.1-15.8 2.5-11.6 60.7 19.8 28.7 17.6-2.5 11.6zm-1823.9 298.7c-20.5 21.1-37.7 41.7-51.4 58.2-15.5 14.4-33.2 26.9-48.8 41.3l-9.6 10.1-10 12.5c-6.3 8.3-13.5 16.1-18.6 24.9q-7.7 13-15.3 25.8c-5.2 8.4-8.4 17.5-12.5 26.2-16 34.8-24.9 70.1-32.8 104.9-13.7 70.1-17.6 139.6-18.4 213.6 1-21 4.8-47.2 7.9-73.5 4-26.2 7.9-52.4 11.1-73.4 9-68.4 25.6-139.7 66.4-204.3 9.2-16.6 22.8-31 35-46q18.7-18.9 37.5-37.8c25.4-25 50-51.1 76.5-75.1 105.3-97.3 222.1-183.4 344.1-253.3q17.7-9.8 35.7-19.7c12.1-6.4 24-13.4 37-18.5 25.5-10.7 51.3-21.5 77.1-32.4 12.8-5.8 26.4-9.5 39.8-13.8l40.3-12.7c13.5-4 26.7-8.7 40.3-12.1q20.6-4.7 41.1-9.3c54.2-14 109.1-20.5 162-29.1 26.6-2.5 52.8-5.2 78.5-8.3 12.9-2 25.6-2.7 38.2-3.5q19-1.5 37.5-2.9l0.1-8.9-21.9 2.7c-38.6-2.4-73.7-0.5-107.2-0.4-33.7-0.7-65.6 3.4-98.2 6.4 3.6-0.8 7.5-1.6 11.2-2.3-6.5 1-12.9 2.1-19.5 3.2-10.9 1.3-22 2.1-33 4-11 2.4-22.2 4.8-33.6 7.2-22.8 5.3-46.7 10.6-71.7 18.3-22.4 8.5-45.2 17.1-68.1 25.7-130.6 46.4-253.5 114.6-362.8 192.9-26.6 20.4-53.1 40.7-79.4 60.8-25.4 21-49.2 43.3-73.2 64.7q-17.9 16.3-35.5 32.3c-11.3 11.1-22 22.7-32.9 33.9q-21.3 22.4-41.9 44.4c93.7-98.9 217-204.1 354.7-289-35.2 23.2-71.6 45.4-104.8 71.9-33.8 25.7-69.1 49.8-100.6 78-25 20.5-49 42-70.3 62.4zm1815-147.7q-4.6-1.4-9.1-2.9 1.7 0.6 3.3 1.2 2.9 0.9 5.8 1.7zm-2039.9 1385c8.4 36.1 17.4 75 27 112.5q7.3 27.9 14.5 56l7.4 27.9 1.8 7c-0.1 1.6 1.4 1.4 2.7 1.3l3.7 0.1 15 0.2c40 0.4 79.2 1.4 119 1.2 34.7 0.1 69.5 0.3 104.1 0.4 114.6 0.3 227.6 2.4 331.5 6.3 167.3 4.3 648-0.9 565.3-38.3-104.2 29.3-449.6 20.7-750.9 13.7-78-1.6-153.2-3.2-220.8-4.6-40.9-0.7-79.6-1.4-115.3-2.1q-13.5-0.2-26.4-0.4l-6.5-0.1c-1.4 0.4-1.5-0.7-1.7-1.8l-0.8-3q-1.6-5.9-3.1-11.7c-4-15.5-7.8-30.3-11.4-44.1-14.6-55.5-26.1-98.8-35.1-120.7-4.8-12-8.1-15.2-11.5-15.7-1.7 0-3.3 1.1-4.7 3.5-1.5 2.4-3 5.4-3.8 12.4zm535.2-1549.6l-32.5 17.9-30.9 19.9-61.5 40.1-15.3 10-14.6 10.9-28.9 22c86.4-61.9 164.8-109.9 249-156.3zm704.5-39.4c-147.6-4.6-296.5 15.8-440.5 63.4 96.9-41.4 201.4-65.1 307.2-77 105.8-11.8 213.7-12.3 320.6-3.2 107.1 9.4 227.4 37 339.6 68.9 112.5 31.6 217.4 66.5 299.4 86.5 3 0.8 6 1.5 9 2.3 183.6 69 366.3 133.9 551.4 182.5 92.5 24.3 185.5 43.6 278.8 58.9 23.3 3.8 46.7 6.2 70.1 9.5l35 4.6c11.7 1.6 23.4 2.1 35.1 3.2l70.3 6.1 70.3 2.7c12.4 9.2 11.4 18 0.9 26.5q-32.9 0.2-66.2 0.3-33.2-1.9-66.8-3.8c-44.8-1.5-89.6-8.6-134.7-13.4-89.8-13.5-179.9-30.7-268.3-53.9-177.1-44.4-348.1-103.8-508.5-153.4-67.5-20.1-135.1-40.1-203.2-60.3-87.8-27.3-175.5-53.2-263.8-73.7-142.8-42.4-288-72.4-435.7-76.7zm393 66.5l42.7 10.2c13.4 4.1 26.9 8.1 40.4 12.2-22.4-5.2-44.8-10.5-67.6-15.9-19.2-5.8-38.7-10.2-58.4-15.2 14.3 2.9 28.6 5.6 42.9 8.7zm-761.6-93.5c-10 3-20.3 5.1-30.3 8.8q-15.1 5.4-30.4 10.8c-20.4 7.2-41.2 14.5-62.4 22-20.7 8.4-41.2 17.9-62.2 27-20.8 9.5-42.7 17.4-62.8 29.1-20.5 10.9-41.1 21.8-61.8 32.9-10.3 5.7-21 10.6-30.9 16.9l-29.7 18.9q16.3-10.7 32.4-21.3c11.1-6.7 22.6-12.7 33.8-19.1q33.8-18.9 67.1-37.5c22.7-11.6 46-21.7 68.8-32.6q17.1-8 34.1-15.9c11.4-5.2 23.3-9 34.8-13.6 67.7-24.2 137.1-42.6 206.4-55.2q4.2-0.5 8.3-0.9c-36.8 6.5-75 19-115.2 29.7zm-541.1 180c-17.4 12.2-34.9 24.5-52.2 36.6 10.1-9.4 20.1-18.8 30.3-28.2 18.5-13.2 55.2-39.3 73.7-52.4zm-394.1 1154.1c13.7 94.4 30.3 185.7 49.1 275.5-21.2-93.7-40.1-188.2-54.5-285.4-14.6-97.1-24.7-197-26.8-301.3-0.3-44-6.9-111.3-5.9-157.2 1.1-58 5.9-118.6 19.1-182.4 13.6-63.5 34.6-131.6 79.1-200.2 5.8-8.5 11.1-17 17.5-25.4q10.4-12.5 21.2-24.8l10.8-12.2c2.1-2.3 3.2-3.3 4.6-4.6l4-3.9 16.3-15.6q32.8-31.1 65.8-62.3c21.6-21.2 45.8-40.3 69.6-59.8 23.9-19.4 47.4-39.2 72-57.9-12.9 12.5-25 25.9-37.5 38.7l-51.7 45.3c-8.5 7.7-17.5 15-25.6 22.9l-24.2 24q-24.3 24-48.5 48l-24.2 24.1-6.1 6-3.1 3.1-4 4.5-15.7 18.4c-40.8 49.5-65.8 102.5-83.9 153.4-17 51-27.6 101-35.1 150.2-13.2 98-15.1 193.5-10.7 288 4.2 94.6 13.9 188.6 27.3 283 0.4 2.7 0.7 5.2 1.1 7.9z"/>
</svg>